<svg fill="none" height="80" viewBox="0 0 80 80" width="80" xmlns="http://www.w3.org/2000/svg" xmlns:xlink="http://www.w3.org/1999/xlink"><linearGradient id="a" gradientUnits="userSpaceOnUse" x1="-7.32884" x2="81.4579" y1="74.8778" y2="17.0355"><stop offset=".00132565" stop-color="#ffcb4b"/><stop offset="1" stop-color="#ffd748"/></linearGradient><linearGradient id="b"><stop offset="0" stop-color="#ffbc47" stop-opacity="0"/><stop offset="1" stop-color="#c86f34"/></linearGradient><linearGradient id="c" gradientUnits="userSpaceOnUse" x1="41.5247" x2="4.31915" xlink:href="#b" y1="44.3998" y2="36.3229"/><linearGradient id="d" gradientUnits="userSpaceOnUse" x1="48.4692" x2="15.2635" xlink:href="#b" y1="23.8074" y2="16.9342"/><radialGradient id="e" cx="38.7969" cy="36.1434" gradientUnits="userSpaceOnUse" r="44.0493"><stop offset=".5178" stop-color="#ffbc47" stop-opacity="0"/><stop offset=".5332" stop-color="#ffbc47" stop-opacity="0"/><stop offset="1" stop-color="#ffa754"/></radialGradient><linearGradient id="f" gradientUnits="userSpaceOnUse" x1="45.0929" x2="69.7295" xlink:href="#b" y1="-30.5603" y2="149.929"/><linearGradient id="g" gradientUnits="userSpaceOnUse" x1="35.0741" x2="65.959" xlink:href="#b" y1="-19.4807" y2="68.5324"/><linearGradient id="h"><stop offset="0" stop-color="#fbe07a"/><stop offset=".2654" stop-color="#fcdf73" stop-opacity=".7346"/><stop offset=".6548" stop-color="#fddb5f" stop-opacity=".3452"/><stop offset="1" stop-color="#ffd748" stop-opacity="0"/></linearGradient><radialGradient id="i" cx="0" cy="0" gradientTransform="matrix(.95904484 -12.30608616 6.43604498 .50157749 39.7413 48.0848)" gradientUnits="userSpaceOnUse" r="1" xlink:href="#h"/><radialGradient id="j" cx="0" cy="0" gradientTransform="matrix(8.85591146 -8.68559098 3.03649432 3.09603858 52.8276 50.3747)" gradientUnits="userSpaceOnUse" r="1" xlink:href="#h"/><radialGradient id="k" cx="0" cy="0" gradientTransform="matrix(6.23105302 .32666688 -.34060083 6.49683802 19.455 60.743)" gradientUnits="userSpaceOnUse" r="1" xlink:href="#h"/><linearGradient id="l" gradientUnits="userSpaceOnUse" x1="19.17" x2="23.053" xlink:href="#b" y1="55.9497" y2="45.1936"/><path d="m29.0584 52.1818c0-5.2673 2.2297-10.6239 7.2289-18.1208 4.9993-7.4969 5.178-8.569 4.9993-12.6748-.1787-4.1059-.7148-7.3183 2.4083-7.3183s8.3903 4.1952 8.3903 9.2838-2.8123 9.0584-2.8123 13.2108c0 .5672.1399 1.0916.3457 1.5499.5322 1.1887 2.0471 1.5771 3.1114.8235 1.4334-1.0177 3.5659-2.3034 5.0498-2.1947 0 0-1.0527-6.1606.5554-7.7649 0 0-4.0126-2.3229-5.3566-6.25-.5787-1.6975-3.0881-5.0148-3.0881-5.0148s-6.7316-4.7118-3.0259-8.50683c2.6375-2.70355 5.8033-.35737 8.7477 2.14423 2.9443 2.4976 7.8542 5.2206 12.364 12.4961.4934.7963 1.6975 6.8288 1.6975 11.424 0 7.0969.5361 13.2536-5.3566 19.6823-5.8926 6.4287-15.8872 17.0487-25.3496 17.0487s-19.9037-1.3401-26.0644-.268c0 0-3.75622-14.9666-.7147-19.7289 2.0548-3.2124 12.0533.1787 16.8699.1787z" fill="url(#a)"/><path d="m36.2913 34.061c-4.9993 7.4969-7.2289 12.8535-7.2289 18.1208 0 0-.6254.6254-2.319 4.2845 0 0 4.0359 1.5848 6.7161-1.8063.8779-1.1148-.1281-7.1784.742-11.828.5632-3.0182 4.1718-6.8249 7.6173-12.3097-.6953-.6526-1.4295-1.2624-2.1364-1.849-.7653 1.3674-1.8451 3.0687-3.3911 5.3877z" fill="url(#c)"/><path d="m42.2499 14.4292c-1.4722.9439-1.1032 3.663-.9633 6.957.1243 2.8356.0738 4.2262-1.6159 7.2871.7108.5866 1.445 1.1964 2.1364 1.849 1.9538-3.1114 3.4921-6.0286 3.4921-8.064.0077-3.632-2.1442-6.1063-3.0493-8.0291z" fill="url(#d)"/><path d="m12.9031 71.7322c6.1607-1.0721 16.602.268 26.0644.268s19.4609-10.6239 25.3497-17.0487c5.8926-6.4287 5.3566-12.5855 5.3566-19.6823 0-4.5952-1.2003-10.6277-1.6975-11.424-4.5059-7.2755-9.4158-9.9985-12.3641-12.4962-1.5071-1.2779-3.0687-2.50928-4.5875-3.0531 3.5271 3.3794 11.0861 8.5146 15.2541 15.7435 1.3401 2.319 1.6975 13.5993 1.6975 18.5053s-8.301 13.1216-22.6733 22.3159c-6.25 3.9971-14.283 3.4649-16.2446.7886-1.9655-2.6764-2.1442-2.8395-2.1442-1.1459 0 1.6975-1.1614 3.5697-7.4969 3.5697-2.8162 0-5.5042-.8623-7.629-1.8217.5244 3.1269 1.1148 5.4809 1.1148 5.4809z" fill="url(#e)"/><path d="m60.095 34.6278c-1.4878-3.5115 1.7246-3.4494.1204-6.7239-1.6082-3.2746-3.6319-4.5215-5.4149-8.4486-1.779-3.9116-9.3264-5.8383-8.5962-9.342-1.0604 1.9072.0272 3.9232 1.3013 5.3993-.8585-.5943-1.7441-1.0294-2.5637-1.2585.9012 1.1497 2.2296 2.9443 3.6708 5.2595.2719.435.4739.9866.6331 1.5848.6332 2.4316.3807 5.0303-.606 7.3415-1.2158 2.8512-1.8101 5.31-1.8101 6.7239 0 1.7869.0816 4.7623 3.0454 6.4287s5.7606-.3573 8.0834-.536c2.3151-.1826 3.6242-2.9172 2.1365-6.4287zm-10.2005-16.9205s.0544.0738.1398.1864c-.0543-.0699-.1087-.1398-.1631-.2058.0039.0077.0233.0194.0233.0194zm7.8892 19.0336c-1.4838-.1088-3.6164 1.177-5.0497 2.1947-1.0604.7536-2.5792.3651-3.1114-.8235-.2059-.4584-.3457-.9789-.3457-1.5499 0-4.1524 2.8123-8.1223 2.8123-13.2109 0-1.7207-.6099-3.3328-1.5266-4.7195.7847 1.107 2.0316 2.956 2.42 4.098 1.344 3.9272 5.3566 6.2501 5.3566 6.2501-1.6081 1.6003-.5555 7.761-.5555 7.761z" fill="url(#f)"/><path d="m57.267 26.2961c-1.0721-1.6082-2.991-7.1862-3.8378-8.033-.7108-.7108-5.2206-2.9832-7.5163-5.4809.2797.9983.9051 1.9422 1.5887 2.7308-.6992-.4817-1.4139-.8585-2.0975-1.1032 4.5059 3.9466 4.634 8.1961 4.634 10.1927 0 2.1442-6.25 15.7085 1.3402 15.7085 2.2296 0 4.2845-3.1541 6.6035-2.5598 2.3189.5943-.3574-2.3501 1.0721-5.9198 1.4255-3.5698-.7148-3.9272-1.7869-5.5353zm-7.3726-8.5884s.0544.0738.1399.1864c-.0544-.0699-.1088-.1398-.1632-.2059.0039.0078.0233.0195.0233.0195zm7.8892 19.0336c-1.4838-.1088-3.6163 1.1769-5.0497 2.1946-1.0604.7536-2.5792.3652-3.1114-.8235-.2059-.4583-.3457-.9788-.3457-1.5498 0-4.1525 2.8123-8.1223 2.8123-13.2109 0-1.7208-.6098-3.3328-1.5266-4.7196.7847 1.1071 2.0316 2.9561 2.42 4.0981 1.344 3.9271 5.3566 6.25 5.3566 6.25-1.6081 1.6004-.5555 7.7611-.5555 7.7611z" fill="url(#g)"/><path d="m40.999 36.1197c3.6086.1359 5.0264 6.215 5.0187 12.8379-.0078 5.4149-3.3639 11.3619-6.8871 11.1366-3.5231-.2214-6.6112-1.0643-5.745-12.298.5127-6.619 4.0825-11.8086 7.6134-11.6765z" fill="url(#i)" opacity=".75"/><path d="m61.6137 42.0663c1.8023 1.6276-1.5771 6.7162-6.0752 11.6028-3.6786 3.997-9.478 6.9686-11.1794 5.3177-1.7013-1.6509-2.754-3.5814 5.3294-11.5134 4.7623-4.6729 10.1617-6.9997 11.9252-5.4071z" fill="url(#j)" opacity=".75"/><path d="m25.5082 61.3878c-.1204 3.6358-3.2241 5.376-6.5841 5.7101-2.7463.2758-5.7179-2.7929-5.5586-6.3472.1593-3.5542.6293-6.7045 6.3199-6.4131 3.3562.1709 5.9393 3.4921 5.8228 7.0502z" fill="url(#k)" opacity=".75"/><path d="m43.6987 14.0677c1.1382-.0272 2.2607.3729 3.2552.9284 1.0021.5593 1.8878 1.3051 2.6724 2.1403.7575.8584 1.414 1.8179 1.8529 2.8783.4467 1.0566.672 2.2064.6099 3.3367-.1632-2.2684-1.2236-4.3427-2.7308-5.9742-.738-.8312-1.6043-1.5499-2.5482-2.1442-.94-.5826-1.981-1.0604-3.1114-1.1653z" fill="#804b24"/><path d="m29.0584 52.1821c-4.8206 0-14.819-3.3911-16.87-.1787-.2525.3924-.4506.8624-.6176 1.379 4.4127-4.032 7.427 3.0842 15.1647 3.0842 1.7014-3.6591 2.3229-4.2845 2.3229-4.2845z" fill="url(#l)"/></svg>